#!OML:ASF I:\Actors\actors\Patient Classification 1\Patient 1\Session 1\Subject1.ASF
:FULLY-SPECIFIED
:DEGREES
708
root -0.750041 17.4062 8.35866 57.1483 -21.5838 -18.3987
lowerback 30.6842 5.53213 -1.27737
upperback -1.77541 7.82654 5.57071
thorax -19.4416 3.70278 3.45238
lowerneck -1.39365 -6.96741 -1.9052
upperneck -7.46285 -8.83257 12.0871
head -1.46895 -4.69618 4.34459
rclavicle 3.45885e-014 3.12589e-014
rhumerus -35.7005 -6.21067 -85.0935
rradius 52.051
rwrist 5.47268
rhand 2.62106 -28.1397
rfingers 7.12502
rthumb 28.0984 -56.0549
lclavicle 3.45885e-014 3.12589e-014
lhumerus -30.2307 -4.86535 93.3646
lradius 52.4278
lwrist 11.5338
lhand -25.6196 -14.2278
lfingers 7.12502
lthumb 0.913116 15.75
rfemur -90.9957 42.6407 -49.464
rtibia 1.95308
rfoot -40.0814 -46.0897
rtoes 44.4384
lfemur -46.3496 29.8165 -8.08879
ltibia 2.56161
lfoot -6.76811 20.7748
ltoes 10.3574
709
root -0.775669 17.4072 8.34824 56.9956 -21.9132 -18.1659
lowerback 30.6701 5.27199 -0.95906
upperback -1.81448 7.5864 5.49258
thorax -19.3992 3.56697 3.30416
lowerneck -1.45282 -6.88858 -1.71228
upperneck -7.38782 -8.74962 11.6537
head -1.46888 -4.64505 4.15227
rclavicle -2.6339e-014 9.41245e-014
rhumerus -35.7446 -6.08614 -85.1569
rradius 52.0558
rwrist 5.54221
rhand 2.74983 -27.9777
rfingers 7.12502
rthumb 28.2215 -55.8727
lclavicle -2.6339e-014 9.41245e-014
lhumerus -30.257 -4.67661 93.313
lradius 52.1924
lwrist 11.3155
lhand -25.9141 -14.9584
lfingers 7.12502
lthumb 0.628688 15.0204
rfemur -90.9903 42.6696 -49.9439
rtibia 1.74194
rfoot -40.1084 -46.197
rtoes 44.3187
lfemur -45.7523 28.8352 -7.22954
ltibia 2.53949
lfoot -7.38557 22.0375
ltoes 11.4053
710
root -0.81139 17.403 8.34524 57.1194 -22.8689 -17.982
lowerback 30.1799 5.23767 -1.3857
upperback -1.82629 7.35402 5.33292
thorax -19.1791 3.51507 3.49272
lowerneck -1.56207 -6.78047 -1.67339
upperneck -7.23197 -8.63469 11.2209
head -1.42809 -4.5698 3.98431
rclavicle -2.00773e-014 3.17062e-014
rhumerus -35.7332 -5.7851 -85.2307
rradius 52.0354
rwrist 5.48
rhand 2.91114 -27.7552
rfingers 7.12502
rthumb 28.3756 -55.6246
lclavicle -2.00773e-014 3.17062e-014
lhumerus -30.3112 -4.29982 93.2618
lradius 52.0021
lwrist 11.1217
lhand -26.0383 -15.6112
lfingers 7.12502
lthumb 0.508766 14.368
rfemur -91.5753 42.4224 -51.3228
rtibia 1.5449
rfoot -40.3158 -46.1847
rtoes 44.4813
lfemur -45.1292 28.1688 -6.95406
ltibia 2.2771
lfoot -8.11887 23.4118
ltoes 12.5506
711
root -0.836988 17.3872 8.29239 58.1714 -22.2984 -18.3526
lowerback 28.9544 4.81049 -0.338684
upperback -2.02802 7.21456 5.56024
thorax -18.7158 3.39393 3.31027
lowerneck -1.58847 -6.70234 -1.77419
upperneck -7.15881 -8.54492 10.9877
head -1.4118 -4.51346 3.91889
rclavicle 3.47873e-014 1.66979e-014
rhumerus -35.6502 -5.69783 -85.2915
rradius 51.9164
rwrist 5.50873
rhand 3.0255 -27.5731
rfingers 7.12502
rthumb 28.4849 -55.4242
lclavicle 3.47873e-014 1.66979e-014
lhumerus -30.377 -4.05099 93.207
lradius 51.8488
lwrist 10.968
lhand -26.0616 -15.7616
lfingers 7.12502
lthumb 0.486295 14.2176
rfemur -92.3645 41.2835 -51.0087
rtibia 1.74001
rfoot -40.4597 -46.1937
rtoes 44.6687
lfemur -46.3983 27.6249 -5.45494
ltibia 3.04865
lfoot -8.48808 24.8778
ltoes 12.0039
712
root -0.879479 17.4306 8.27792 56.7364 -22.1838 -17.8457
lowerback 30.7797 4.42793 -0.0376011
upperback -1.97603 6.87777 5.743
thorax -19.5173 3.1985 3.40576
lowerneck -1.59062 -6.56488 -2.0209
upperneck -7.08843 -8.36992 10.8655
head -1.39549 -4.41367 3.92115
rclavicle 1.98785e-014 7.49418e-014
rhumerus -35.603 -5.52924 -85.3152
rradius 51.8451
rwrist 5.65385
rhand 3.12777 -27.5376
rfingers 7.12502
rthumb 28.5826 -55.3724
lclavicle 1.98785e-014 7.49418e-014
lhumerus -30.4352 -3.65448 93.153
lradius 51.706
lwrist 10.6847
lhand -25.9032 -15.52
lfingers 7.12502
lthumb 0.639282 14.4588
rfemur -91.3406 42.6551 -50.5609
rtibia 1.57336
rfoot -40.5277 -46.319
rtoes 44.7275
lfemur -44.6136 25.8827 -4.015
ltibia 2.839
lfoot -8.73558 26.1905
ltoes 11.2659
713
root -0.944992 17.4042 8.32425 56.8205 -24.7518 -18.7569
lowerback 30.0927 5.37124 -1.63572
upperback -1.70438 7.4185 5.29625
thorax -19.0157 3.56285 3.56586
lowerneck -1.73809 -6.60556 -1.81814
upperneck -6.91385 -8.44829 10.5894
head -1.32778 -4.44272 3.77409
rclavicle -9.56154e-014 -3.48867e-014
rhumerus -35.7393 -5.93589 -85.281
rradius 51.9217
rwrist 5.75641
rhand 3.20299 -27.7151
rfingers 7.12502
rthumb 28.6545 -55.5378
lclavicle -9.56154e-014 -3.48867e-014
lhumerus -30.4697 -3.94695 93.1472
lradius 51.5099
lwrist 10.552
lhand -25.7005 -15.398
lfingers 7.12502
lthumb 0.834965 14.5801
rfemur -93.8879 43.6266 -54.1163
rtibia 1.2788
rfoot -40.6134 -46.3602
rtoes 44.8307
lfemur -41.5853 26.6519 -3.79229
ltibia 1.30554
lfoot -8.9311 27.7419
ltoes 10.0443
714
root -0.979671 17.402 8.29698 57.3595 -25.3786 -18.2989
lowerback 29.082 5.23608 -1.95052
upperback -1.89204 7.12703 5.15808
thorax -18.7384 3.48846 3.77197
lowerneck -2.03277 -6.60507 -2.26933
upperneck -6.33993 -8.48229 10.7227
head -1.0613 -4.42488 3.86666
rclavicle -1.41137e-014 -8.49804e-014
rhumerus -35.8135 -5.79669 -85.1875
rradius 51.9733
rwrist 5.63134
rhand 3.27365 -27.752
rfingers 7.12502
rthumb 28.722 -55.5633
lclavicle -1.41137e-014 -8.49804e-014
lhumerus -30.5028 -3.82085 93.2161
lradius 51.3191
lwrist 10.481
lhand -25.6036 -15.5233
lfingers 7.12502
lthumb 0.928586 14.4544
rfemur -94.252 42.5776 -55.1268
rtibia 1.15629
rfoot -40.7909 -46.381
rtoes 45.0089
lfemur -42.1817 25.7059 -3.84024
ltibia 1.51648
lfoot -9.47873 29.139
ltoes 10.0898
715
root -0.993144 17.3693 8.2043 59.972 -24.7549 -17.9801
lowerback 25.7551 4.66538 -1.25156
upperback -2.50284 6.67904 5.2577
thorax -17.6813 3.30612 3.88281
lowerneck -1.98183 -6.57217 -2.0138
upperneck -6.51578 -8.45107 10.0366
head -1.17138 -4.40932 3.59384
rclavicle -6.91771e-014 4.01545e-014
rhumerus -35.8187 -5.60653 -85.069
rradius 51.9837
rwrist 5.45249
rhand 3.40492 -27.5167
rfingers 7.12502
rthumb 28.8474 -55.3066
lclavicle -6.91771e-014 4.01545e-014
lhumerus -30.4872 -3.62852 93.3013
lradius 51.1346
lwrist 10.2848
lhand -25.5792 -15.5825
lfingers 7.12502
lthumb 0.952159 14.3951
rfemur -94.8723 38.7718 -54.9034
rtibia 1.37772
rfoot -40.9669 -46.3895
rtoes 45.1549
lfemur -46.5417 25.3922 -3.36115
ltibia 3.33396
lfoot -11.411 30.1377
ltoes 14.6689
716
root -1.02505 17.3671 8.19122 59.9874 -24.9276 -17.9143
lowerback 25.4884 4.5313 -0.776768
upperback -2.54787 6.63733 5.19308
thorax -17.5223 3.24176 3.58196
lowerneck -2.17954 -6.65557 -1.79631
upperneck -6.49544 -8.58421 9.59659
head -1.15083 -4.46868 3.39344
rclavicle -5.50634e-014 2.01766e-014
rhumerus -35.7862 -5.98094 -84.9707
rradius 51.9129
rwrist 5.58313
rhand 3.52292 -27.3568
rfingers 7.12502
rthumb 28.9601 -55.1274
lclavicle -5.50634e-014 2.01766e-014
lhumerus -30.4374 -3.79742 93.3827
lradius 50.934
lwrist 10.0473
lhand -25.5519 -15.584
lfingers 7.12502
lthumb 0.978508 14.3935
rfemur -95.0258 38.7221 -55.2213
rtibia 1.23622
rfoot -41.0726 -46.4569
rtoes 45.1643
lfemur -46.138 24.5874 -2.26775
ltibia 3.33269
lfoot -12.2513 31.3677
ltoes 15.5097
717
root -1.05727 17.3669 8.18476 59.9003 -25.1424 -17.9121
lowerback 25.3858 4.27328 -0.547367
upperback -2.55999 6.38096 5.29608
thorax -17.4484 3.11717 3.6796
lowerneck -2.48831 -6.47536 -2.26434
upperneck -6.00097 -8.36569 9.66822
head -0.927839 -4.32766 3.47442
rclavicle -1.76918e-014 5.22804e-014
rhumerus -35.7624 -5.56804 -84.9524
rradius 51.8421
rwrist 5.6027
rhand 3.69925 -27.3635
rfingers 7.12502
rthumb 29.1285 -55.1051
lclavicle -1.76918e-014 5.22804e-014
lhumerus -30.5006 -3.25277 93.3642
lradius 50.7556
lwrist 9.81596
lhand -25.4734 -15.7369
lfingers 7.12502
lthumb 1.0543 14.2403
rfemur -95.1994 38.8692 -55.5801
rtibia 1.06021
rfoot -41.257 -46.4761
rtoes 45.2971
lfemur -45.5272 23.7792 -1.14699
ltibia 3.26116
lfoot -13.052 32.5806
ltoes 16.0508
718
root -1.09001 17.3676 8.18189 59.7542 -25.4183 -17.9198
lowerback 25.368 4.1022 -0.283325
upperback -2.66652 6.22387 5.18296
thorax -17.505 3.01829 3.47095
lowerneck -2.26544 -6.36791 -1.75019
upperneck -6.10652 -8.22978 9.26549
head -1.0487 -4.27143 3.26167
rclavicle 6.55989e-014 -1.98785e-014
rhumerus -35.9883 -5.57328 -85.0583
rradius 51.8606
rwrist 5.46231
rhand 3.94218 -27.2684
rfingers 7.12502
rthumb 29.3605 -54.9696
lclavicle 6.55989e-014 -1.98785e-014
lhumerus -30.7213 -3.2992 93.1904
lradius 50.5476
lwrist 9.70157
lhand -25.3312 -16.0407
lfingers 7.12502
lthumb 1.19165 13.9357
rfemur -95.3964 39.1101 -56.0083
rtibia 0.887069
rfoot -41.5351 -46.4367
rtoes 45.5802
lfemur -44.8194 22.9503 -0.0775947
ltibia 3.16462
lfoot -13.965 33.7386
ltoes 16.8872
